<?xml version="1.0" encoding="iso-8859-1"?>
<!-- Generator: Adobe Illustrator 16.0.0, SVG Export Plug-In . SVG Version: 6.00 Build 0)  -->
<!DOCTYPE svg PUBLIC "-//W3C//DTD SVG 1.1//EN" "http://www.w3.org/Graphics/SVG/1.1/DTD/svg11.dtd">
<svg version="1.1" id="Capa_1" xmlns="http://www.w3.org/2000/svg" xmlns:xlink="http://www.w3.org/1999/xlink" x="0px" y="0px"
	 width="125.655px" height="125.655px" viewBox="0 0 125.655 125.655" style="enable-background:new 0 0 125.655 125.655;"
	 xml:space="preserve">
<g>
	<g>
		<polygon points="12.233,115.979 30.9,115.979 30.9,98.119 66.311,98.119 66.311,115.959 84.333,115.959 84.333,87.629
			12.233,87.629 		"/>
		<path d="M122.438,45.65c-2.976-3.66-5.945-7.43-8.821-11.074c-0.922-1.17-1.845-2.338-2.767-3.506
			c0.252-0.352,0.504-0.697,0.756-1.043c1.418-1.953,2.759-3.801,3.896-5.844c0.409-0.734,2.346-4.514,0.23-6.727
			c-0.608-0.635-1.455-0.984-2.389-0.984c-1.436,0-2.855,0.822-3.795,1.367l-0.188,0.107c-2.037,1.168-3.985,2.43-6.05,3.76
			c-0.092,0.061-0.186,0.121-0.275,0.182c-0.527-1.324-1.027-2.541-1.518-3.732c-0.771-1.885-1.5-3.664-2.322-5.789
			c-0.654-1.662-1.989-2.691-3.48-2.691c-0.9,0-1.765,0.383-2.433,1.076c-1.136,1.18-1.657,3.145-1.554,5.826
			c0.104,3.16-0.178,5.25-0.783,8.514c-0.19,1.029-0.676,2.082-1.234,2.684l-13.908,14.18c-1.349,1.447-2.576,1.986-4.526,1.986
			l-0.097-0.002l-49.032,0.011l-0.234-0.002c-4.048,0-6.632,1.469-8.635,4.912L0,69.957l8.485,6.088l3.597-5.502v10.336h73.282
			c0.086-0.199,0.17-0.393,0.247-0.566c2.902-6.451,5.918-12.988,8.836-19.309l1.861-4.039c0.164-0.357,0.34-0.713,0.525-1.074
			c1.342,0.566,2.67,1.123,3.992,1.678c4.848,2.035,9.425,3.957,14.011,6.019c1.089,0.488,2.082,0.728,3.043,0.728
			c1.875,0,3.503-0.901,4.978-2.758C126.73,56.685,126.575,50.738,122.438,45.65z M34.791,62.251l-3.733,2.711l1.426,4.389
			c0.176,0.541-0.016,1.131-0.477,1.465c-0.228,0.168-0.499,0.25-0.77,0.25s-0.54-0.082-0.771-0.25l-3.732-2.711l-3.731,2.711
			c-0.461,0.334-1.082,0.334-1.541,0c-0.461-0.334-0.652-0.924-0.479-1.465l1.428-4.389l-3.732-2.711
			c-0.46-0.334-0.652-0.926-0.477-1.465c0.175-0.541,0.679-0.906,1.247-0.906h4.612l1.426-4.387
			c0.176-0.541,0.679-0.906,1.247-0.906c0.568,0,1.071,0.365,1.247,0.906l1.426,4.387h4.612c0.569,0,1.071,0.365,1.248,0.906
			C35.441,61.326,35.25,61.917,34.791,62.251z M58.787,62.251l-3.733,2.711l1.426,4.389c0.175,0.541-0.017,1.131-0.477,1.465
			c-0.229,0.168-0.5,0.25-0.771,0.25c-0.27,0-0.539-0.082-0.771-0.25l-3.731-2.711l-3.732,2.711c-0.459,0.334-1.081,0.334-1.541,0
			c-0.459-0.334-0.651-0.924-0.476-1.465l1.425-4.389l-3.732-2.711c-0.457-0.334-0.65-0.926-0.476-1.465
			c0.175-0.541,0.679-0.906,1.247-0.906h4.612l1.427-4.387c0.174-0.541,0.679-0.906,1.246-0.906c0.569,0,1.071,0.365,1.248,0.906
			l1.425,4.387h4.614c0.566,0,1.069,0.365,1.245,0.906C59.438,61.326,59.245,61.917,58.787,62.251z M81.955,62.251l-3.73,2.711
			l1.426,4.389c0.174,0.541-0.02,1.131-0.477,1.465c-0.23,0.168-0.5,0.25-0.771,0.25s-0.541-0.082-0.771-0.25l-3.732-2.711
			l-3.731,2.711c-0.459,0.334-1.082,0.334-1.541,0s-0.649-0.924-0.476-1.465l1.426-4.389l-3.732-2.711
			c-0.459-0.334-0.652-0.926-0.476-1.465c0.176-0.541,0.679-0.906,1.245-0.906h4.613l1.427-4.387
			c0.175-0.541,0.68-0.906,1.245-0.906c0.568,0,1.072,0.365,1.248,0.906l1.425,4.387h4.612c0.568,0,1.072,0.365,1.248,0.906
			C82.605,61.326,82.416,61.917,81.955,62.251z"/>
	</g>
</g>
<g>
</g>
<g>
</g>
<g>
</g>
<g>
</g>
<g>
</g>
<g>
</g>
<g>
</g>
<g>
</g>
<g>
</g>
<g>
</g>
<g>
</g>
<g>
</g>
<g>
</g>
<g>
</g>
<g>
</g>
</svg>
