<?xml version="1.0" encoding="iso-8859-1"?>
<!-- Generator: Adobe Illustrator 16.0.0, SVG Export Plug-In . SVG Version: 6.00 Build 0)  -->
<!DOCTYPE svg PUBLIC "-//W3C//DTD SVG 1.1//EN" "http://www.w3.org/Graphics/SVG/1.1/DTD/svg11.dtd">
<svg version="1.1" id="Capa_1" xmlns="http://www.w3.org/2000/svg" xmlns:xlink="http://www.w3.org/1999/xlink" x="0px" y="0px"
	 width="123.261px" height="123.261px" viewBox="0 0 123.261 123.261" style="enable-background:new 0 0 123.261 123.261;"
	 xml:space="preserve">
<g>
	<g>
		<path d="M62.617,15.618H39.3c-18.453,0-33.932,12.718-38.158,29.866h99.631C96.549,28.336,81.068,15.618,62.617,15.618z
			 M34.871,31.405l-3.775,2.742l1.441,4.438c0.178,0.547-0.016,1.145-0.481,1.482c-0.23,0.168-0.505,0.253-0.779,0.253
			c-0.273,0-0.546-0.085-0.778-0.253l-3.774-2.742l-3.774,2.742c-0.466,0.338-1.094,0.338-1.559,0
			c-0.466-0.338-0.659-0.936-0.482-1.482l1.442-4.438l-3.774-2.742c-0.465-0.338-0.659-0.937-0.481-1.482
			c0.177-0.545,0.687-0.915,1.261-0.915h4.665l1.441-4.438c0.179-0.547,0.687-0.916,1.262-0.916c0.574,0,1.083,0.369,1.261,0.916
			l1.442,4.438h4.664c0.575,0,1.084,0.37,1.262,0.915C35.529,30.469,35.335,31.068,34.871,31.405z M59.138,31.405l-3.775,2.742
			l1.442,4.438c0.176,0.547-0.018,1.145-0.482,1.482c-0.231,0.168-0.505,0.253-0.779,0.253c-0.272,0-0.546-0.085-0.78-0.253
			l-3.773-2.742l-3.774,2.742c-0.464,0.338-1.093,0.338-1.558,0c-0.465-0.338-0.659-0.936-0.481-1.482l1.441-4.438l-3.775-2.742
			c-0.463-0.338-0.658-0.937-0.481-1.482c0.178-0.545,0.687-0.915,1.262-0.915h4.665l1.442-4.438
			c0.176-0.547,0.687-0.916,1.26-0.916c0.575,0,1.084,0.369,1.262,0.916l1.441,4.438h4.666c0.573,0,1.082,0.37,1.26,0.915
			C59.797,30.469,59.602,31.068,59.138,31.405z M82.568,31.405l-3.773,2.742l1.441,4.438c0.177,0.547-0.019,1.145-0.48,1.482
			c-0.234,0.168-0.507,0.253-0.779,0.253c-0.273,0-0.548-0.085-0.779-0.253l-3.775-2.742l-3.773,2.742
			c-0.465,0.338-1.095,0.338-1.559,0c-0.465-0.338-0.659-0.936-0.48-1.482l1.44-4.438l-3.774-2.742
			c-0.465-0.338-0.658-0.937-0.48-1.482s0.688-0.915,1.261-0.915h4.666l1.441-4.438c0.177-0.547,0.687-0.916,1.26-0.916
			c0.574,0,1.084,0.369,1.263,0.916l1.439,4.438h4.666c0.574,0,1.084,0.37,1.261,0.915C83.227,30.469,83.033,31.068,82.568,31.405z"
			/>
		<path d="M110.686,70.374v20.104c0,2.528-2.058,4.588-4.588,4.588c-2.736,0-4.167-2.31-4.167-4.588V70.374h-0.011l-0.005-15.458
			c0-0.88-0.032-1.753-0.089-2.62H0.09C0.032,53.164,0,54.037,0,54.917v52.137h21.287V79.021H61.24v28.033h19.978V78.234
			c0-2.315,1.876-4.192,4.19-4.192c1.822,0,3.947,1.459,3.947,4.164v12.273c0,9.625,7.354,17.163,16.741,17.163
			c9.466,0,17.164-7.7,17.164-17.163V70.374H110.686z"/>
	</g>
</g>
<g>
</g>
<g>
</g>
<g>
</g>
<g>
</g>
<g>
</g>
<g>
</g>
<g>
</g>
<g>
</g>
<g>
</g>
<g>
</g>
<g>
</g>
<g>
</g>
<g>
</g>
<g>
</g>
<g>
</g>
</svg>
